<?xml version="1.0" encoding="UTF-8"?>
<!DOCTYPE svg PUBLIC "-//W3C//DTD SVG 1.1//EN" "http://www.w3.org/Graphics/SVG/1.1/DTD/svg11.dtd">
<!-- Creator: CorelDRAW X6 -->
<svg xmlns="http://www.w3.org/2000/svg" xml:space="preserve" width="28.194mm" height="28.194mm" version="1.1" style="shape-rendering:geometricPrecision; text-rendering:geometricPrecision; image-rendering:optimizeQuality; fill-rule:evenodd; clip-rule:evenodd"
viewBox="0 0 2819 2819"
 xmlns:xlink="http://www.w3.org/1999/xlink">
 <defs>
  <style type="text/css">
   <![CDATA[
    .str0 {stroke:black;stroke-width:40}
    .str2 {stroke:black;stroke-width:40;stroke-linecap:round}
    .str1 {stroke:black;stroke-width:40;stroke-linecap:round;stroke-linejoin:round}
    .fil3 {fill:none}
    .fil1 {fill:black}
    .fil0 {fill:#FFBF34}
    .fil2 {fill:black;fill-rule:nonzero}
   ]]>
  </style>
 </defs>
 <g id="Layer_x0020_1">
  <metadata id="CorelCorpID_0Corel-Layer"/>
  <g id="_1053228496">
   <path class="fil0" d="M2103 291c194,140 330,354 445,584 115,230 209,477 215,738 6,262 -76,539 -249,736 -173,196 -437,312 -703,362 -266,51 -533,38 -788,-31 -255,-68 -498,-192 -678,-381 -180,-188 -298,-442 -316,-698 -18,-256 64,-514 175,-760 111,-246 250,-480 455,-615 205,-134 476,-170 737,-155 261,15 513,80 706,220z"/>
   <path class="fil1" d="M1788 736c0,5 2,10 6,14 4,4 9,6 14,6l119 0c5,0 10,-2 14,-6 4,-4 6,-9 6,-14 0,-5 -2,-10 -6,-14 -4,-4 -9,-6 -14,-6l-119 0c-5,0 -10,2 -14,6 -4,4 -6,9 -6,14l0 0z"/>
   <path class="fil2" d="M1421 1786l0 -96c96,-16 147,-84 147,-158 0,-82 -48,-130 -144,-169 -81,-34 -115,-58 -115,-107 0,-37 27,-80 98,-80 58,0 96,23 117,32l22 -60c-26,-17 -64,-32 -120,-33l0 -90 -58 0 0 93c-84,15 -140,73 -140,150 0,81 59,123 154,160 69,28 105,59 105,111 0,52 -44,90 -111,90 -51,0 -88,-17 -123,-35l-32 57c32,23 88,40 142,41l0 94 57 0z"/>
   <circle class="fil1" cx="1398" cy="1025" r="29"/>
   <circle class="fil1" cx="1392" cy="1787" r="29"/>
   <circle class="fil1" cx="1535" cy="1178" r="32"/>
   <circle class="fil1" cx="1239" cy="1624" r="33"/>
   <circle class="fil3 str0" cx="1391" cy="1398" r="574"/>
   <path class="fil1" d="M1867 657c-5,0 -10,2 -14,6 -4,4 -6,9 -6,14l0 119c0,5 2,10 6,14 4,4 9,6 14,6 5,0 10,-2 14,-6 4,-4 6,-9 6,-14l0 -119c0,-5 -2,-10 -6,-14 -4,-4 -9,-6 -14,-6l0 0z"/>
   <path class="fil3 str1" d="M954 1193c45,-96 121,-169 209,-220"/>
   <path class="fil3 str1" d="M1229 944c26,-9 52,-16 78,-20"/>
   <path class="fil1" d="M634 1890c0,3 1,6 4,8 2,2 5,4 8,4l74 0c3,0 6,-1 8,-4 2,-2 4,-5 4,-8 0,-3 -1,-6 -4,-8 -2,-2 -5,-4 -8,-4l-74 0c-3,0 -6,1 -8,4 -2,2 -4,5 -4,8l0 0z"/>
   <path class="fil1" d="M683 1840c-3,0 -6,1 -8,4 -2,2 -4,5 -4,8l0 74c0,3 1,6 4,8 2,2 5,4 8,4 3,0 6,-1 8,-4 2,-2 4,-5 4,-8l0 -74c0,-3 -1,-6 -4,-8 -2,-2 -5,-4 -8,-4l0 0z"/>
   <path class="fil1" d="M2047 1006c0,3 1,6 4,8 2,2 5,4 8,4l74 0c3,0 6,-1 8,-4 2,-2 4,-5 4,-8 0,-3 -1,-6 -4,-8 -2,-2 -5,-4 -8,-4l-74 0c-3,0 -6,1 -8,4 -2,2 -4,5 -4,8l0 0z"/>
   <path class="fil1" d="M2096 957c-3,0 -6,1 -8,4 -2,2 -4,5 -4,8l0 74c0,3 1,6 4,8 2,2 5,4 8,4 3,0 6,-1 8,-4 2,-2 4,-5 4,-8l0 -74c0,-3 -1,-6 -4,-8 -2,-2 -5,-4 -8,-4l0 0z"/>
   <path class="fil1" d="M1016 2095c0,5 2,10 6,14 4,4 9,6 14,6l119 0c5,0 10,-2 14,-6 4,-4 6,-9 6,-14 0,-5 -2,-10 -6,-14 -4,-4 -9,-6 -14,-6l-119 0c-5,0 -10,2 -14,6 -4,4 -6,9 -6,14l0 0z"/>
   <path class="fil1" d="M1095 2016c-5,0 -10,2 -14,6 -4,4 -6,9 -6,14l0 119c0,5 2,10 6,14 4,4 9,6 14,6 5,0 10,-2 14,-6 4,-4 6,-9 6,-14l0 -119c0,-5 -2,-10 -6,-14 -4,-4 -9,-6 -14,-6l0 0z"/>
   <path class="fil3 str2" d="M1826 1025c119,105 193,259 193,430 0,317 -257,574 -574,574 -173,0 -328,-76 -433,-197"/>
  </g>
 </g>
</svg>
